<svg role="img" viewBox="0 0 24 24" xmlns="http://www.w3.org/2000/svg"><title>Apryse</title><path d="M400.58 9.875C434.955-10 478.955 1.75 498.705 36.125l23.75 41.125h47.5c39.75 0 71.875 32.125 71.875 71.875v24l-75.625-20.25H152.83l247.75-143Zm-82.25 0C283.955-10 239.955 1.75 220.205 36.125l-67.375 116.75L321.205 11.5l-2.875-1.625Z M709.205 400.75c19.875 34.375 8.125 78.375-26.25 98.125l-41.125 23.75v47.5c0 39.75-32.125 71.875-71.875 71.875h-24l20.25-75.625V153l143 247.75Zm0-82.25c19.875-34.375 8.125-78.375-26.25-98.125L566.205 153 707.58 321.5l1.625-3Z M9.704 318.5c-19.875-34.375-8.125-78.375 26.25-98.125l41.125-23.75v-47.5c0-39.75 32.125-71.875 71.875-71.875h24l-20.25 75.625V566.25l-143-247.75Zm0 82.25c-19.875 34.375-8.125 78.375 26.25 98.125l116.75 67.375L11.329 397.875l-1.625 2.875Z"/></svg>